<svg width="21" height="20" viewBox="0 0 21 20" fill="none" xmlns="http://www.w3.org/2000/svg">
<path d="M19.8641 10.0335C19.8641 4.95232 15.76 0.833172 10.6974 0.833172C5.63482 0.833172 1.53076 4.95232 1.53076 10.0335C1.53076 14.3483 4.49031 17.9687 8.48298 18.963V12.845H6.59274V10.0335H8.48298V8.82206C8.48298 5.69056 9.89494 4.23911 12.9581 4.23911C13.5388 4.23911 14.5409 4.35338 14.9508 4.46768V7.01633C14.7344 6.99347 14.3587 6.98203 13.8918 6.98203C12.3887 6.98203 11.808 7.55348 11.808 9.03923V10.0335H14.8021L14.2878 12.845H11.808V19.1665C16.3468 18.6163 19.8641 14.7374 19.8641 10.0335Z" fill="#5F7896"/>
</svg>
