<svg width="35" height="35" viewBox="0 0 35 35" fill="none" xmlns="http://www.w3.org/2000/svg">
<path fill-rule="evenodd" clip-rule="evenodd" d="M8.45606 4.92425C8.81668 4.29769 9.31844 3.7649 9.92105 3.36892L14.2169 0.907276C15.3563 0.245173 16.2931 0.788396 16.2931 2.1126V16.0338C16.2931 17.3581 15.3563 17.9013 14.2169 17.2392L9.92105 14.6927C9.31844 14.2967 8.81668 13.764 8.45606 13.1374C8.0955 12.5108 7.8861 11.8078 7.84482 11.085V6.97657C7.8861 6.25376 8.0955 5.55081 8.45606 4.92425ZM7.46164 15.1078C8.16061 15.1078 8.84981 15.2706 9.47353 15.583L13.653 17.9532C14.7594 18.5864 14.7594 19.6174 13.653 20.2505L2.016 26.9068C0.909699 27.5399 0 27.0204 0 25.7541V20.981C0.040069 20.2899 0.243371 19.6177 0.593492 19.0185C0.943673 18.4193 1.4309 17.9099 2.016 17.5312L5.44974 15.583C6.07346 15.2706 6.76266 15.1078 7.46164 15.1078ZM25.079 3.36892C25.6816 3.7649 26.1834 4.29769 26.544 4.92425C26.9046 5.55081 27.114 6.25376 27.1552 6.97657V11.085C27.114 11.8078 26.9046 12.5108 26.544 13.1374C26.1834 13.764 25.6816 14.2967 25.079 14.6927L20.7747 17.2392C19.6353 17.9013 18.7069 17.3581 18.7069 16.0338V2.1126C18.7069 0.788396 19.6353 0.245173 20.7747 0.907276L25.079 3.36892ZM27.2316 15.1078C26.5032 15.1078 25.7849 15.2706 25.1348 15.583L20.7787 17.9532C19.6255 18.5864 19.6255 19.6174 20.7787 20.2505L32.9074 26.9068C34.0604 27.5399 35 27.0204 35 25.7541V20.981C34.9599 20.2905 34.7496 19.6185 34.3861 19.0192C34.0227 18.42 33.5161 17.9103 32.9074 17.5312L29.3286 15.583C28.6785 15.2706 27.9601 15.1078 27.2316 15.1078ZM7.42591 33.34C8.05 33.6521 8.73956 33.8146 9.43889 33.8146C10.1383 33.8146 10.8278 33.6521 11.4519 33.34L14.8877 31.3864C15.4722 31.006 15.9584 30.4955 16.3073 29.8958C16.6562 29.296 16.858 28.6238 16.8965 27.933V23.1664C16.8965 21.9017 15.9946 21.3829 14.8877 22.0152L3.24402 28.6626C2.13705 29.2949 2.13705 30.3244 3.24402 30.9567L7.42591 33.34ZM18.1148 29.8943C17.7514 29.2964 17.5409 28.626 17.5 27.9369V23.1654C17.5 21.9017 18.4396 21.3832 19.5927 22.015L31.7214 28.6579C32.8745 29.2898 32.8745 30.3187 31.7214 30.9505L27.3653 33.3403C26.7152 33.6522 25.9969 33.8146 25.2685 33.8146C24.5399 33.8146 23.8216 33.6522 23.1715 33.3403L19.5927 31.3799C18.9844 31.001 18.4783 30.4923 18.1148 29.8943Z" fill="#36485C"/>
</svg>
