<svg width="26" height="27" viewBox="0 0 26 27" fill="none" xmlns="http://www.w3.org/2000/svg">
<g clip-path="url(#clip0_1_534)">
<path fill-rule="evenodd" clip-rule="evenodd" d="M22.3624 22.5192C24.6148 20.1816 26 17.0025 26 13.5C26 6.3203 20.1797 0.5 13 0.5C5.8203 0.5 0 6.3203 0 13.5C0 17.0025 1.38516 20.1816 3.63756 22.5192C4.81846 18.4635 8.56313 15.4998 13 15.4998C17.4369 15.4998 21.1815 18.4635 22.3624 22.5192ZM13 13.5C15.3932 13.5 17.3333 11.5599 17.3333 9.16667C17.3333 6.77343 15.3932 4.83333 13 4.83333C10.6068 4.83333 8.66667 6.77343 8.66667 9.16667C8.66667 11.5599 10.6068 13.5 13 13.5Z" fill="#36485C"/>
<circle cx="13" cy="13.5" r="12.25" stroke="#36485C" stroke-width="1.5"/>
</g>
<defs>
<clipPath id="clip0_1_534">
<rect width="26" height="26" fill="white" transform="translate(0 0.5)"/>
</clipPath>
</defs>
</svg>
